<?xml version="1.0" encoding="utf-8"?>
<!-- Generator: Adobe Illustrator 24.2.1, SVG Export Plug-In . SVG Version: 6.00 Build 0)  -->
<svg version="1.1" xmlns="http://www.w3.org/2000/svg" xmlns:xlink="http://www.w3.org/1999/xlink" x="0px" y="0px"
	 viewBox="0 0 841.89 595.28" style="enable-background:new 0 0 841.89 595.28;" xml:space="preserve">
<style type="text/css">
	.st0{stroke:#000000;stroke-miterlimit:10;}
	.st1{fill:url(#SVGID_1_);}
	.st2{fill:url(#SVGID_2_);}
	.st3{fill:url(#SVGID_3_);}
	.st4{fill:url(#SVGID_4_);}
	.st5{fill:url(#SVGID_5_);}
	.st6{fill:url(#SVGID_6_);}
	.st7{fill:url(#SVGID_7_);}
	.st8{fill:url(#SVGID_8_);}
	.st9{fill:url(#SVGID_9_);}
	.st10{fill:url(#SVGID_10_);}
	.st11{fill:url(#SVGID_11_);}
	.st12{fill:url(#SVGID_12_);}
	.st13{fill:url(#SVGID_13_);}
	.st14{fill:url(#SVGID_14_);}
	.st15{fill:url(#SVGID_15_);}
	.st16{fill:url(#SVGID_16_);}
	.st17{fill:url(#SVGID_17_);}
	.st18{fill:url(#SVGID_18_);}
	.st19{fill:url(#SVGID_19_);}
	.st20{fill:url(#SVGID_20_);}
	.st21{fill:url(#SVGID_21_);}
	.st22{fill:url(#SVGID_22_);}
	.st23{fill:url(#SVGID_23_);}
	.st24{fill:url(#SVGID_24_);}
	.st25{fill:url(#SVGID_25_);}
	.st26{fill:url(#SVGID_26_);}
	.st27{fill:url(#SVGID_27_);}
	.st28{fill:url(#SVGID_28_);}
	.st29{fill:url(#SVGID_29_);}
	.st30{fill:none;}
	.st31{fill:url(#SVGID_30_);}
	.st32{fill:url(#SVGID_31_);}
	.st33{fill:none;stroke:url(#SVGID_32_);stroke-width:2;stroke-miterlimit:10;}
</style>
<g id="Ebene_1">
	<rect class="st0" width="841.89" height="595.28"/>
</g>
<g id="Ebene_2">
	<g>
		<g>
			
				<linearGradient id="SVGID_1_" gradientUnits="userSpaceOnUse" x1="346.2184" y1="212.5163" x2="495.6713" y2="212.5163" gradientTransform="matrix(1 0 0 1 0 -14)">
				<stop  offset="0" style="stop-color:#F0CC83"/>
				<stop  offset="0.8047" style="stop-color:#CA9E67;stop-opacity:0.9"/>
			</linearGradient>
			<path class="st1" d="M494.28,127.44h-6.22h-1.42h-131.2h-2.57h-5.25c-0.77,0-1.4,0.63-1.4,1.4v140.76h5.76V133.2h0.38
				l68.78,136.39l68.38-136.39h0.38v136.39h5.76V128.83C495.67,128.06,495.05,127.44,494.28,127.44z M421.14,260.37L358,132.63
				h60.06L421.14,260.37l2.69-127.74h60.26L421.14,260.37z"/>
		</g>
	</g>
	<linearGradient id="SVGID_2_" gradientUnits="userSpaceOnUse" x1="184.256" y1="337.8411" x2="215.1567" y2="337.8411">
		<stop  offset="0" style="stop-color:#F0CC83"/>
		<stop  offset="0.2581" style="stop-color:#CA9E67"/>
	</linearGradient>
	<path class="st2" d="M200.78,313.31v51h-2.15v-51h-14.38v-1.93h30.9v1.93H200.78z"/>
	<linearGradient id="SVGID_3_" gradientUnits="userSpaceOnUse" x1="298.6306" y1="337.8772" x2="329.3171" y2="337.8772">
		<stop  offset="0" style="stop-color:#F0CC83"/>
		<stop  offset="0.2581" style="stop-color:#CA9E67"/>
	</linearGradient>
	<path class="st3" d="M329.32,350.43c0,2.19-0.43,4.2-1.29,6.01c-0.86,1.81-2,3.37-3.43,4.68c-1.43,1.31-3.08,2.32-4.94,3.04
		c-1.86,0.72-3.77,1.07-5.72,1.07c-1.57,0-3.23-0.2-4.97-0.61c-1.74-0.4-3.34-1.1-4.79-2.07c-1.46-0.98-2.69-2.29-3.72-3.93
		c-1.03-1.65-1.63-3.73-1.82-6.26h2.15c0.33,2.53,1.01,4.52,2.04,5.97c1.02,1.46,2.18,2.55,3.47,3.29c1.29,0.74,2.62,1.2,4.01,1.39
		c1.38,0.19,2.57,0.29,3.58,0.29c1.67,0,3.3-0.3,4.9-0.89c1.6-0.6,3.02-1.44,4.26-2.54c1.24-1.1,2.24-2.42,3-3.97
		c0.76-1.55,1.14-3.28,1.14-5.19c0-2.43-0.46-4.42-1.39-5.97c-0.93-1.55-2.09-2.8-3.47-3.75c-1.38-0.95-2.85-1.67-4.4-2.15
		c-1.55-0.48-2.97-0.88-4.26-1.22c-1.14-0.29-2.52-0.68-4.11-1.18c-1.6-0.5-3.11-1.23-4.54-2.18c-1.43-0.95-2.65-2.23-3.65-3.83
		c-1-1.6-1.53-3.64-1.57-6.12v-0.21c0-2.15,0.39-4.07,1.18-5.76c0.79-1.69,1.83-3.12,3.15-4.29c1.31-1.17,2.84-2.05,4.58-2.65
		c1.74-0.6,3.56-0.89,5.47-0.89c1.57,0,3.16,0.3,4.76,0.89c1.6,0.6,3.06,1.57,4.4,2.93c1.33,1.36,2.42,3.15,3.25,5.36
		c0.83,2.22,1.25,4.95,1.25,8.19h-2.15c0-2.05-0.2-4.01-0.61-5.87c-0.41-1.86-1.07-3.51-2-4.94c-0.93-1.43-2.14-2.56-3.61-3.4
		c-1.48-0.83-3.29-1.25-5.44-1.25c-1.67,0-3.24,0.27-4.72,0.82c-1.48,0.55-2.77,1.32-3.86,2.32c-1.1,1-1.96,2.22-2.58,3.65
		c-0.62,1.43-0.93,3-0.93,4.72c0,2.1,0.39,3.83,1.18,5.19c0.79,1.36,1.85,2.49,3.18,3.4c1.33,0.91,2.86,1.63,4.58,2.18
		c1.72,0.55,3.48,1.06,5.29,1.54c0.43,0.1,1.05,0.25,1.86,0.46c0.81,0.21,1.7,0.53,2.68,0.93c0.98,0.41,1.98,0.94,3,1.61
		c1.02,0.67,1.95,1.5,2.79,2.5c0.83,1,1.51,2.22,2.04,3.65C329.05,346.85,329.32,348.52,329.32,350.43z"/>
	<linearGradient id="SVGID_4_" gradientUnits="userSpaceOnUse" x1="392.7974" y1="336.9198" x2="394.9436" y2="336.9198">
		<stop  offset="0" style="stop-color:#F0CC83"/>
		<stop  offset="0.2581" style="stop-color:#CA9E67"/>
	</linearGradient>
	<rect x="392.8" y="310.45" class="st4" width="2.15" height="52.93"/>
	<linearGradient id="SVGID_5_" gradientUnits="userSpaceOnUse" x1="513.0024" y1="337.8411" x2="542.0427" y2="337.8411">
		<stop  offset="0" style="stop-color:#F0CC83"/>
		<stop  offset="0.2581" style="stop-color:#CA9E67"/>
	</linearGradient>
	<path class="st5" d="M513,364.31v-52.93h29.04v1.93h-26.89v23.39h13.81v1.93h-13.81v23.75h26.89v1.93H513z"/>
	<linearGradient id="SVGID_6_" gradientUnits="userSpaceOnUse" x1="352.351" y1="329.4366" x2="356.0036" y2="329.4366">
		<stop  offset="0" style="stop-color:#F0CC83"/>
		<stop  offset="0.2581" style="stop-color:#CA9E67"/>
	</linearGradient>
	<circle class="st6" cx="354.18" cy="329.44" r="1.83"/>
	<linearGradient id="SVGID_7_" gradientUnits="userSpaceOnUse" x1="613.2277" y1="337.8411" x2="615.3529" y2="337.8411">
		<stop  offset="0" style="stop-color:#F0CC83"/>
		<stop  offset="0.2581" style="stop-color:#CA9E67"/>
	</linearGradient>
	<path class="st7" d="M613.23,364.31v-52.93h2.13v52.93H613.23z"/>
	
		<linearGradient id="SVGID_8_" gradientUnits="userSpaceOnUse" x1="563.4205" y1="322.5356" x2="567.0731" y2="322.5356" gradientTransform="matrix(0.9845 0.1753 -0.1753 0.9845 68.8822 -92.018)">
		<stop  offset="0" style="stop-color:#F0CC83"/>
		<stop  offset="0.2581" style="stop-color:#CA9E67"/>
	</linearGradient>
	<circle class="st8" cx="568.82" cy="324.63" r="1.83"/>
	<g>
		<linearGradient id="SVGID_9_" gradientUnits="userSpaceOnUse" x1="247.8434" y1="398.82" x2="265.1119" y2="398.82">
			<stop  offset="0" style="stop-color:#F0CC83"/>
			<stop  offset="0.8047" style="stop-color:#CA9E67;stop-opacity:0.9"/>
		</linearGradient>
		<path class="st9" d="M256.74,408.62h-0.56l-8.34-19.6h0.9l7.73,18.27l7.76-18.27h0.87L256.74,408.62z"/>
		<linearGradient id="SVGID_10_" gradientUnits="userSpaceOnUse" x1="274.4613" y1="398.82" x2="285.2145" y2="398.82">
			<stop  offset="0" style="stop-color:#F0CC83"/>
			<stop  offset="0.8047" style="stop-color:#CA9E67;stop-opacity:0.9"/>
		</linearGradient>
		<path class="st10" d="M274.46,408.62v-19.6h10.75v0.72h-9.96v8.66h5.11v0.72h-5.11v8.79h9.96v0.72H274.46z"/>
		<linearGradient id="SVGID_11_" gradientUnits="userSpaceOnUse" x1="294.1663" y1="398.82" x2="306.6944" y2="398.82">
			<stop  offset="0" style="stop-color:#F0CC83"/>
			<stop  offset="0.8047" style="stop-color:#CA9E67;stop-opacity:0.9"/>
		</linearGradient>
		<path class="st11" d="M306.38,397.16c-0.21,0.7-0.55,1.34-1.01,1.93c-0.46,0.59-1.06,1.09-1.79,1.5
			c-0.73,0.41-1.62,0.61-2.66,0.61l-3.97,0.03l8.48,7.39h-1.01l-9.46-8.1h4.93c0.46,0,0.88-0.01,1.27-0.04
			c0.39-0.03,0.75-0.08,1.1-0.17c0.34-0.09,0.68-0.22,1.01-0.38c0.33-0.17,0.65-0.38,0.97-0.65c0.62-0.65,1.05-1.32,1.3-2
			c0.25-0.68,0.37-1.41,0.37-2.18c0-0.85-0.2-1.7-0.6-2.54c-0.4-0.85-0.98-1.52-1.73-2.01c-0.3-0.19-0.62-0.34-0.95-0.45
			c-0.34-0.11-0.7-0.18-1.1-0.24c-0.4-0.05-0.83-0.08-1.3-0.09c-0.47-0.01-0.99-0.01-1.58-0.01h-3.68v18.88h-0.79v-19.6h4.48
			c0.76,0,1.41,0.02,1.96,0.05c0.55,0.03,1.02,0.09,1.42,0.16c0.4,0.07,0.74,0.16,1.03,0.26c0.29,0.11,0.56,0.22,0.81,0.35
			c0.39,0.21,0.75,0.49,1.1,0.85c0.34,0.35,0.64,0.76,0.89,1.22c0.25,0.46,0.45,0.96,0.6,1.5c0.15,0.54,0.23,1.09,0.25,1.66v0.13
			C306.69,395.81,306.59,396.47,306.38,397.16z"/>
		<linearGradient id="SVGID_12_" gradientUnits="userSpaceOnUse" x1="315.4606" y1="398.82" x2="326.9024" y2="398.82">
			<stop  offset="0" style="stop-color:#F0CC83"/>
			<stop  offset="0.8047" style="stop-color:#CA9E67;stop-opacity:0.9"/>
		</linearGradient>
		<path class="st12" d="M321.58,389.74v18.88h-0.79v-18.88h-5.32v-0.72h11.44v0.72H321.58z"/>
		<linearGradient id="SVGID_13_" gradientUnits="userSpaceOnUse" x1="335.9331" y1="398.82" x2="348.4612" y2="398.82">
			<stop  offset="0" style="stop-color:#F0CC83"/>
			<stop  offset="0.8047" style="stop-color:#CA9E67;stop-opacity:0.9"/>
		</linearGradient>
		<path class="st13" d="M348.14,397.16c-0.21,0.7-0.55,1.34-1.01,1.93c-0.46,0.59-1.06,1.09-1.79,1.5
			c-0.73,0.41-1.62,0.61-2.66,0.61l-3.97,0.03l8.48,7.39h-1.01l-9.46-8.1h4.93c0.46,0,0.88-0.01,1.27-0.04
			c0.39-0.03,0.75-0.08,1.1-0.17c0.34-0.09,0.68-0.22,1.01-0.38c0.33-0.17,0.65-0.38,0.97-0.65c0.62-0.65,1.05-1.32,1.3-2
			c0.25-0.68,0.37-1.41,0.37-2.18c0-0.85-0.2-1.7-0.6-2.54c-0.4-0.85-0.98-1.52-1.73-2.01c-0.3-0.19-0.62-0.34-0.95-0.45
			c-0.34-0.11-0.7-0.18-1.1-0.24c-0.4-0.05-0.83-0.08-1.3-0.09c-0.47-0.01-0.99-0.01-1.58-0.01h-3.68v18.88h-0.79v-19.6h4.48
			c0.76,0,1.41,0.02,1.96,0.05c0.55,0.03,1.02,0.09,1.42,0.16c0.4,0.07,0.74,0.16,1.03,0.26c0.29,0.11,0.56,0.22,0.81,0.35
			c0.39,0.21,0.75,0.49,1.1,0.85c0.34,0.35,0.64,0.76,0.89,1.22c0.25,0.46,0.45,0.96,0.6,1.5c0.15,0.54,0.23,1.09,0.25,1.66v0.13
			C348.46,395.81,348.36,396.47,348.14,397.16z"/>
		<linearGradient id="SVGID_14_" gradientUnits="userSpaceOnUse" x1="358.0215" y1="398.82" x2="358.8161" y2="398.82">
			<stop  offset="0" style="stop-color:#F0CC83"/>
			<stop  offset="0.8047" style="stop-color:#CA9E67;stop-opacity:0.9"/>
		</linearGradient>
		<path class="st14" d="M358.02,408.62v-19.6h0.79v19.6H358.02z"/>
		<linearGradient id="SVGID_15_" gradientUnits="userSpaceOnUse" x1="369.1187" y1="398.82" x2="379.8719" y2="398.82">
			<stop  offset="0" style="stop-color:#F0CC83"/>
			<stop  offset="0.8047" style="stop-color:#CA9E67;stop-opacity:0.9"/>
		</linearGradient>
		<path class="st15" d="M369.12,408.62v-19.6h10.75v0.72h-9.96v8.66h5.11v0.72h-5.11v8.79h9.96v0.72H369.12z"/>
		<linearGradient id="SVGID_16_" gradientUnits="userSpaceOnUse" x1="388.9032" y1="398.82" x2="400.0275" y2="398.82">
			<stop  offset="0" style="stop-color:#F0CC83"/>
			<stop  offset="0.8047" style="stop-color:#CA9E67;stop-opacity:0.9"/>
		</linearGradient>
		<path class="st16" d="M400.03,404.28c0,0.85-0.16,1.55-0.48,2.12c-0.32,0.57-0.76,1.01-1.32,1.34c-0.57,0.33-1.23,0.56-1.99,0.69
			c-0.76,0.13-1.57,0.2-2.44,0.2h-4.9v-19.6h4.16c0.85,0,1.53,0.07,2.05,0.2c0.52,0.13,0.98,0.31,1.39,0.52
			c0.44,0.25,0.81,0.54,1.11,0.87c0.3,0.33,0.54,0.69,0.72,1.06c0.18,0.37,0.3,0.75,0.37,1.14c0.07,0.39,0.11,0.77,0.11,1.14
			c0,0.14,0,0.47,0.01,0.99c0.01,0.52-0.06,1.1-0.2,1.75c-0.14,0.64-0.41,1.28-0.79,1.91c-0.39,0.63-0.98,1.11-1.77,1.44v0.05
			c0.64,0.04,1.18,0.16,1.63,0.37c0.45,0.21,0.82,0.47,1.11,0.77c0.29,0.3,0.52,0.63,0.69,0.98c0.17,0.35,0.29,0.68,0.37,0.98
			c0.08,0.3,0.13,0.55,0.15,0.75C400.02,404.15,400.03,404.26,400.03,404.28z M398.01,393.84c0-0.9-0.2-1.66-0.61-2.26
			c-0.41-0.61-0.87-1.03-1.38-1.26c-0.28-0.16-0.64-0.29-1.06-0.41c-0.42-0.12-1.06-0.17-1.91-0.17h-3.36l-0.05,10.09h3.55
			c0.58,0,1.1-0.04,1.56-0.13c0.46-0.09,0.86-0.21,1.22-0.37c0.51-0.23,0.9-0.58,1.18-1.05c0.27-0.47,0.48-0.98,0.61-1.52
			c0.13-0.55,0.21-1.08,0.23-1.6C398.01,394.63,398.01,394.19,398.01,393.84z M399.23,404.3c0-0.49-0.09-0.97-0.28-1.43
			c-0.19-0.46-0.46-0.86-0.82-1.21c-0.36-0.34-0.8-0.62-1.32-0.83c-0.52-0.21-1.13-0.31-1.81-0.29h-1.8h-3.55l0.05,7.36h4.13
			c0.71,0,1.39-0.06,2.04-0.18c0.65-0.12,1.26-0.31,1.83-0.57c0.57-0.25,0.96-0.63,1.19-1.11
			C399.12,405.55,399.23,404.97,399.23,404.3z"/>
		<linearGradient id="SVGID_17_" gradientUnits="userSpaceOnUse" x1="409.2968" y1="398.8329" x2="420.6591" y2="398.8329">
			<stop  offset="0" style="stop-color:#F0CC83"/>
			<stop  offset="0.8047" style="stop-color:#CA9E67;stop-opacity:0.9"/>
		</linearGradient>
		<path class="st17" d="M420.66,403.48c0,0.81-0.16,1.55-0.48,2.22c-0.32,0.67-0.74,1.25-1.27,1.74c-0.53,0.48-1.14,0.86-1.83,1.13
			c-0.69,0.27-1.39,0.4-2.12,0.4c-0.58,0-1.2-0.08-1.84-0.23c-0.64-0.15-1.24-0.41-1.77-0.77c-0.54-0.36-1-0.85-1.38-1.46
			c-0.38-0.61-0.61-1.38-0.68-2.32h0.79c0.12,0.94,0.38,1.67,0.75,2.21c0.38,0.54,0.81,0.94,1.28,1.22
			c0.48,0.27,0.97,0.45,1.48,0.52c0.51,0.07,0.95,0.11,1.32,0.11c0.62,0,1.22-0.11,1.81-0.33c0.59-0.22,1.12-0.53,1.58-0.94
			s0.83-0.9,1.11-1.47c0.28-0.57,0.42-1.21,0.42-1.92c0-0.9-0.17-1.64-0.52-2.21c-0.34-0.57-0.77-1.04-1.28-1.39
			c-0.51-0.35-1.06-0.62-1.63-0.8c-0.57-0.18-1.1-0.33-1.58-0.45c-0.42-0.11-0.93-0.25-1.52-0.44s-1.15-0.45-1.68-0.81
			c-0.53-0.35-0.98-0.83-1.35-1.42c-0.37-0.59-0.57-1.35-0.58-2.26v-0.08c0-0.79,0.15-1.51,0.44-2.13c0.29-0.63,0.68-1.16,1.17-1.59
			c0.49-0.43,1.05-0.76,1.7-0.98c0.64-0.22,1.32-0.33,2.03-0.33c0.58,0,1.17,0.11,1.76,0.33c0.59,0.22,1.13,0.58,1.63,1.09
			c0.49,0.5,0.9,1.17,1.21,1.99c0.31,0.82,0.46,1.83,0.46,3.03h-0.79c0-0.76-0.08-1.48-0.23-2.17c-0.15-0.69-0.4-1.3-0.74-1.83
			c-0.34-0.53-0.79-0.95-1.34-1.26c-0.55-0.31-1.22-0.46-2.01-0.46c-0.62,0-1.2,0.1-1.75,0.31c-0.55,0.2-1.02,0.49-1.43,0.86
			c-0.41,0.37-0.72,0.82-0.95,1.35c-0.23,0.53-0.34,1.11-0.34,1.75c0,0.78,0.15,1.42,0.44,1.92c0.29,0.5,0.68,0.92,1.18,1.26
			c0.49,0.33,1.06,0.61,1.69,0.81c0.64,0.2,1.29,0.39,1.96,0.57c0.16,0.03,0.39,0.09,0.69,0.17s0.63,0.19,0.99,0.34
			c0.36,0.15,0.73,0.35,1.11,0.6c0.38,0.25,0.72,0.56,1.03,0.93c0.31,0.37,0.56,0.82,0.75,1.35
			C420.56,402.16,420.66,402.78,420.66,403.48z"/>
		<linearGradient id="SVGID_18_" gradientUnits="userSpaceOnUse" x1="430.2995" y1="398.82" x2="450.9052" y2="398.82">
			<stop  offset="0" style="stop-color:#F0CC83"/>
			<stop  offset="0.8047" style="stop-color:#CA9E67;stop-opacity:0.9"/>
		</linearGradient>
		<path class="st18" d="M450.11,408.62v-18.8h-0.05l-9.22,18.8h-0.45l-9.24-18.8h-0.05v18.8h-0.79v-19.6h1.27l9.06,18.33l9.03-18.33
			h1.24v19.6H450.11z"/>
		<linearGradient id="SVGID_19_" gradientUnits="userSpaceOnUse" x1="460.2539" y1="398.82" x2="478.0792" y2="398.82">
			<stop  offset="0" style="stop-color:#F0CC83"/>
			<stop  offset="0.8047" style="stop-color:#CA9E67;stop-opacity:0.9"/>
		</linearGradient>
		<path class="st19" d="M477.23,408.62l-1.19-2.78l-13.72-0.08l-1.22,2.86h-0.85l8.4-19.6h1.03l8.4,19.6H477.23z M469.15,389.76
			l-6.49,15.28l13.03,0.08L469.15,389.76z"/>
		<linearGradient id="SVGID_20_" gradientUnits="userSpaceOnUse" x1="487.4008" y1="398.82" x2="499.9283" y2="398.82">
			<stop  offset="0" style="stop-color:#F0CC83"/>
			<stop  offset="0.8047" style="stop-color:#CA9E67;stop-opacity:0.9"/>
		</linearGradient>
		<path class="st20" d="M499.61,397.16c-0.21,0.7-0.55,1.34-1.01,1.93c-0.46,0.59-1.06,1.09-1.79,1.5
			c-0.73,0.41-1.62,0.61-2.66,0.61l-3.97,0.03l8.47,7.39h-1.01l-9.45-8.1h4.93c0.46,0,0.88-0.01,1.27-0.04
			c0.39-0.03,0.76-0.08,1.1-0.17c0.34-0.09,0.68-0.22,1.01-0.38c0.33-0.17,0.65-0.38,0.97-0.65c0.62-0.65,1.05-1.32,1.3-2
			c0.25-0.68,0.37-1.41,0.37-2.18c0-0.85-0.2-1.7-0.6-2.54c-0.4-0.85-0.98-1.52-1.73-2.01c-0.3-0.19-0.62-0.34-0.95-0.45
			c-0.33-0.11-0.7-0.18-1.1-0.24c-0.4-0.05-0.83-0.08-1.3-0.09c-0.47-0.01-0.99-0.01-1.58-0.01h-3.68v18.88h-0.8v-19.6h4.48
			c0.76,0,1.41,0.02,1.96,0.05c0.55,0.03,1.02,0.09,1.42,0.16c0.4,0.07,0.74,0.16,1.03,0.26c0.29,0.11,0.56,0.22,0.81,0.35
			c0.39,0.21,0.76,0.49,1.1,0.85c0.34,0.35,0.64,0.76,0.89,1.22c0.25,0.46,0.45,0.96,0.6,1.5c0.15,0.54,0.23,1.09,0.25,1.66v0.13
			C499.93,395.81,499.82,396.47,499.61,397.16z"/>
		<linearGradient id="SVGID_21_" gradientUnits="userSpaceOnUse" x1="509.4904" y1="398.82" x2="519.7923" y2="398.82">
			<stop  offset="0" style="stop-color:#F0CC83"/>
			<stop  offset="0.8047" style="stop-color:#CA9E67;stop-opacity:0.9"/>
		</linearGradient>
		<path class="st21" d="M509.49,408.62v-19.6h0.79v19.6H509.49z M518.79,408.62l-8.37-10.06l8.42-9.54h0.95l-8.4,9.51l8.4,10.09
			H518.79z"/>
		<linearGradient id="SVGID_22_" gradientUnits="userSpaceOnUse" x1="529.4321" y1="398.82" x2="540.1853" y2="398.82">
			<stop  offset="0" style="stop-color:#F0CC83"/>
			<stop  offset="0.8047" style="stop-color:#CA9E67;stop-opacity:0.9"/>
		</linearGradient>
		<path class="st22" d="M529.43,408.62v-19.6h10.75v0.72h-9.96v8.66h5.11v0.72h-5.11v8.79h9.96v0.72H529.43z"/>
		<linearGradient id="SVGID_23_" gradientUnits="userSpaceOnUse" x1="548.2098" y1="398.82" x2="559.6523" y2="398.82">
			<stop  offset="0" style="stop-color:#F0CC83"/>
			<stop  offset="0.8047" style="stop-color:#CA9E67;stop-opacity:0.9"/>
		</linearGradient>
		<path class="st23" d="M554.33,389.74v18.88h-0.79v-18.88h-5.32v-0.72h11.44v0.72H554.33z"/>
		<linearGradient id="SVGID_24_" gradientUnits="userSpaceOnUse" x1="568.7101" y1="398.82" x2="569.5041" y2="398.82">
			<stop  offset="0" style="stop-color:#F0CC83"/>
			<stop  offset="0.8047" style="stop-color:#CA9E67;stop-opacity:0.9"/>
		</linearGradient>
		<path class="st24" d="M568.71,408.62v-19.6h0.79v19.6H568.71z"/>
		<linearGradient id="SVGID_25_" gradientUnits="userSpaceOnUse" x1="579.7814" y1="398.82" x2="595.2485" y2="398.82">
			<stop  offset="0" style="stop-color:#F0CC83"/>
			<stop  offset="0.8047" style="stop-color:#CA9E67;stop-opacity:0.9"/>
		</linearGradient>
		<path class="st25" d="M594.24,408.62l-13.61-18.8h-0.05v18.8h-0.79v-19.6h1.19l13.43,18.54h0.05v-18.54h0.79v19.6H594.24z"/>
		<linearGradient id="SVGID_26_" gradientUnits="userSpaceOnUse" x1="604.9671" y1="398.82" x2="625.5734" y2="398.82">
			<stop  offset="0" style="stop-color:#F0CC83"/>
			<stop  offset="0.8047" style="stop-color:#CA9E67;stop-opacity:0.9"/>
		</linearGradient>
		<path class="st26" d="M624.47,403.68c-0.59,1.05-1.35,1.97-2.28,2.74c-0.93,0.78-1.99,1.4-3.19,1.85
			c-1.2,0.46-2.49,0.69-3.87,0.69c-1.41,0-2.73-0.25-3.96-0.75c-1.23-0.5-2.3-1.21-3.23-2.11c-0.93-0.9-1.66-1.97-2.18-3.22
			c-0.53-1.24-0.8-2.6-0.8-4.07c0-1.47,0.27-2.82,0.8-4.06c0.53-1.25,1.26-2.32,2.18-3.22c0.93-0.9,2-1.6,3.23-2.11
			c1.23-0.5,2.55-0.75,3.96-0.75c0.9,0,1.79,0.1,2.66,0.32c0.87,0.21,1.7,0.52,2.48,0.93c0.78,0.41,1.49,0.9,2.13,1.48
			c0.64,0.58,1.19,1.24,1.63,1.96h-0.95c-0.99-1.29-2.16-2.27-3.51-2.95c-1.35-0.68-2.83-1.02-4.44-1.02
			c-1.31,0-2.53,0.24-3.67,0.71c-1.14,0.48-2.13,1.14-2.98,1.97c-0.85,0.84-1.51,1.83-2,2.98c-0.49,1.15-0.73,2.4-0.73,3.76
			c0,1.36,0.24,2.61,0.73,3.76c0.48,1.15,1.15,2.14,2,2.98c0.85,0.84,1.84,1.5,2.98,1.97c1.14,0.48,2.36,0.72,3.67,0.72
			c1.23,0,2.39-0.2,3.47-0.61c1.08-0.41,2.03-0.94,2.86-1.62c0.83-0.67,1.52-1.44,2.07-2.3c0.55-0.87,0.91-1.76,1.09-2.67h-16.21
			v-0.72h17.16C625.43,401.51,625.07,402.63,624.47,403.68z"/>
	</g>
	<linearGradient id="SVGID_27_" gradientUnits="userSpaceOnUse" x1="440.2562" y1="337.8411" x2="495.9059" y2="337.8411">
		<stop  offset="0" style="stop-color:#F0CC83"/>
		<stop  offset="0.2581" style="stop-color:#CA9E67"/>
	</linearGradient>
	<polygon class="st27" points="492.54,311.37 468.15,360.87 443.69,311.37 440.26,311.37 440.26,364.31 442.4,364.31 442.4,313.52 
		442.55,313.52 443.47,315.4 443.45,364.29 445.74,364.29 445.79,320.12 445.79,320.12 467.51,364.31 468.72,364.31 490.34,320.22 
		490.34,364.19 492.63,364.19 492.59,315.62 493.62,313.52 493.76,313.52 493.76,364.31 495.91,364.31 495.91,311.37 	"/>
	<linearGradient id="SVGID_28_" gradientUnits="userSpaceOnUse" x1="556.3487" y1="337.8411" x2="597.9788" y2="337.8411">
		<stop  offset="0" style="stop-color:#F0CC83"/>
		<stop  offset="0.2581" style="stop-color:#CA9E67"/>
	</linearGradient>
	<path class="st28" d="M596.15,326.68c-1.22-3.29-2.97-6.07-5.26-8.33c-2.29-2.26-5.09-3.99-8.4-5.19
		c-3.31-1.19-7.05-1.79-11.19-1.79h-14.95v52.93h14.95c4.15,0,7.88-0.6,11.19-1.79c3.31-1.19,6.12-2.92,8.4-5.19
		c2.29-2.26,4.04-5.04,5.26-8.33c1.22-3.29,1.82-7.01,1.82-11.16C597.98,333.69,597.37,329.97,596.15,326.68z M558.49,313.31h12.8
		c1.1,0,2.16,0.06,3.19,0.15c-11.83,4.46-15.99,15.84-15.99,15.84V313.31z M594.15,348.25c-1.12,3.03-2.74,5.59-4.86,7.69
		c-2.12,2.1-4.7,3.7-7.73,4.79c-3.03,1.1-6.45,1.64-10.26,1.64h-12.8v-22.84c2.66-23.15,20.47-24.89,21.76-24.98
		c0.47,0.14,0.96,0.27,1.41,0.44c3.05,1.12,5.63,2.74,7.73,4.86c2.1,2.12,3.7,4.71,4.79,7.76c1.1,3.05,1.65,6.51,1.65,10.37
		C595.83,341.8,595.27,345.22,594.15,348.25z"/>
	<linearGradient id="SVGID_29_" gradientUnits="userSpaceOnUse" x1="632.2407" y1="337.8411" x2="680.38" y2="337.8411">
		<stop  offset="0" style="stop-color:#F0CC83"/>
		<stop  offset="0.2581" style="stop-color:#CA9E67"/>
	</linearGradient>
	<path class="st29" d="M657.71,311.37h-2.79l-22.68,52.93h2.29l3.29-7.73l37.05,0.22l3.22,7.51h2.29L657.71,311.37z M656.27,313.38
		l14.67,34.46h-29.31L656.27,313.38z M638.75,354.65l1.98-4.66h31.14l2.08,4.88L638.75,354.65z"/>
	<rect x="230.03" y="335.01" class="st30" width="51.69" height="1.72"/>
	<linearGradient id="SVGID_30_" gradientUnits="userSpaceOnUse" x1="228.675" y1="337.8417" x2="283.6099" y2="337.8417">
		<stop  offset="0" style="stop-color:#F0CC83"/>
		<stop  offset="0.2581" style="stop-color:#CA9E67"/>
	</linearGradient>
	<path class="st31" d="M281.46,326.86c-1.43-3.36-3.4-6.26-5.9-8.69c-2.5-2.43-5.43-4.33-8.76-5.69c-3.34-1.36-6.89-2.04-10.66-2.04
		c-3.82,0-7.38,0.68-10.69,2.04c-3.31,1.36-6.22,3.25-8.73,5.69c-2.5,2.43-4.47,5.33-5.9,8.69c-1.43,3.36-2.15,7.02-2.15,10.98
		c0,3.96,0.72,7.62,2.15,10.98c1.43,3.36,3.4,6.26,5.9,8.69c2.5,2.43,5.41,4.33,8.73,5.69c3.31,1.36,6.88,2.04,10.69,2.04
		c3.77,0,7.32-0.68,10.66-2.04c3.34-1.36,6.26-3.26,8.76-5.69c2.5-2.43,4.47-5.33,5.9-8.69c1.43-3.36,2.15-7.02,2.15-10.98
		C283.61,333.88,282.89,330.22,281.46,326.86z M238.19,319.64c2.29-2.26,4.97-4.04,8.05-5.33c3.08-1.29,6.38-1.93,9.91-1.93
		c3.48,0,6.76,0.64,9.84,1.93c3.08,1.29,5.76,3.07,8.05,5.33c2.29,2.27,4.1,4.95,5.44,8.05c0.98,2.29,1.6,4.73,1.86,7.32h-50.36
		c0.25-2.6,0.86-5.04,1.83-7.32C234.1,324.59,235.9,321.9,238.19,319.64z M279.46,348c-1.34,3.1-3.15,5.78-5.44,8.05
		c-2.29,2.27-4.97,4.04-8.05,5.33c-3.08,1.29-6.35,1.93-9.84,1.93c-3.53,0-6.83-0.64-9.91-1.93c-3.08-1.29-5.76-3.06-8.05-5.33
		c-2.29-2.26-4.09-4.95-5.4-8.05c-1.31-3.1-1.97-6.48-1.97-10.16c0-0.38,0.04-0.74,0.05-1.11h50.54c0.01,0.37,0.05,0.73,0.05,1.11
		C281.46,341.51,280.8,344.9,279.46,348z"/>
	<g>
		<g>
			<linearGradient id="SVGID_31_" gradientUnits="userSpaceOnUse" x1="345.3386" y1="337.8411" x2="383.3257" y2="337.8411">
				<stop  offset="0" style="stop-color:#F0CC83"/>
				<stop  offset="0.2581" style="stop-color:#CA9E67"/>
			</linearGradient>
			<path class="st32" d="M383.33,311.37h-3.81l-18.17,20.33c-9.9,8.6-13.86,1.13-13.86,1.13v-21.46h-2.15v52.93h2.15v-13.71
				l13.37-14.63l19.9,28.29h2.58l-21.11-29.79L383.33,311.37z M356.21,337.45l-8.72,9.76v-11.1
				C351.58,339.46,356.21,337.45,356.21,337.45z"/>
		</g>
	</g>
	<linearGradient id="SVGID_32_" gradientUnits="userSpaceOnUse" x1="444.5936" y1="364.2629" x2="444.5936" y2="364.2629">
		<stop  offset="0" style="stop-color:#F0CC83"/>
		<stop  offset="0.2581" style="stop-color:#CA9E67"/>
	</linearGradient>
	<path class="st33" d="M444.59,364.26"/>
</g>
</svg>
