<?xml version="1.0" encoding="utf-8"?>
<!-- Generator: Adobe Illustrator 24.2.1, SVG Export Plug-In . SVG Version: 6.00 Build 0)  -->
<svg version="1.1" xmlns="http://www.w3.org/2000/svg" xmlns:xlink="http://www.w3.org/1999/xlink" x="0px" y="0px"
	 viewBox="0 0 841.89 595.28" style="enable-background:new 0 0 841.89 595.28;" xml:space="preserve">
<style type="text/css">
	.st0{stroke:#000000;stroke-miterlimit:10;}
	.st1{fill:url(#SVGID_1_);}
	.st2{fill:url(#SVGID_2_);}
	.st3{fill:url(#SVGID_3_);}
	.st4{fill:url(#SVGID_4_);}
	.st5{fill:url(#SVGID_5_);}
	.st6{fill:url(#SVGID_6_);}
	.st7{fill:url(#SVGID_7_);}
	.st8{fill:url(#SVGID_8_);}
	.st9{fill:url(#SVGID_9_);}
	.st10{fill:url(#SVGID_10_);}
	.st11{fill:url(#SVGID_11_);}
	.st12{fill:url(#SVGID_12_);}
	.st13{fill:url(#SVGID_13_);}
	.st14{fill:url(#SVGID_14_);}
	.st15{fill:url(#SVGID_15_);}
	.st16{fill:url(#SVGID_16_);}
	.st17{fill:url(#SVGID_17_);}
	.st18{fill:url(#SVGID_18_);}
	.st19{fill:url(#SVGID_19_);}
	.st20{fill:url(#SVGID_20_);}
	.st21{fill:url(#SVGID_21_);}
	.st22{fill:url(#SVGID_22_);}
	.st23{fill:url(#SVGID_23_);}
	.st24{fill:url(#SVGID_24_);}
	.st25{fill:url(#SVGID_25_);}
	.st26{fill:url(#SVGID_26_);}
	.st27{fill:url(#SVGID_27_);}
	.st28{fill:url(#SVGID_28_);}
	.st29{fill:url(#SVGID_29_);}
</style>
<g id="Ebene_1">
	<rect class="st0" width="841.89" height="595.28"/>
</g>
<g id="Ebene_2">
	<g>
		<g>
			<linearGradient id="SVGID_1_" gradientUnits="userSpaceOnUse" x1="337.9055" y1="235.0182" x2="487.3584" y2="235.0182">
				<stop  offset="0" style="stop-color:#F0CC83"/>
				<stop  offset="0.8047" style="stop-color:#CA9E67;stop-opacity:0.9"/>
			</linearGradient>
			<path class="st1" d="M485.96,163.94H339.3c-0.77,0-1.4,0.63-1.4,1.4V306.1h5.76V169.7h0.38l68.78,136.39l68.38-136.39h0.38V306.1
				h5.76V165.34C487.36,164.57,486.73,163.94,485.96,163.94z M412.82,296.88l-63.13-127.74h60.06L412.82,296.88l2.69-127.74h60.26
				L412.82,296.88z"/>
		</g>
	</g>
	<linearGradient id="SVGID_2_" gradientUnits="userSpaceOnUse" x1="143.7471" y1="362.5166" x2="190.397" y2="362.5166">
		<stop  offset="0" style="stop-color:#F0CC83"/>
		<stop  offset="0.8047" style="stop-color:#CA9E67;stop-opacity:0.9"/>
	</linearGradient>
	<path class="st2" d="M170.42,340.02v50.63h-6.63v-50.63h-20.05v-5.63h46.65v5.63H170.42z"/>
	<linearGradient id="SVGID_3_" gradientUnits="userSpaceOnUse" x1="205.7711" y1="362.479" x2="249.1959" y2="362.479">
		<stop  offset="0" style="stop-color:#F0CC83"/>
		<stop  offset="0.8047" style="stop-color:#CA9E67;stop-opacity:0.9"/>
	</linearGradient>
	<path class="st3" d="M249.2,370.92c0,3.05-0.48,5.79-1.42,8.21c-0.95,2.43-2.35,4.49-4.2,6.19c-1.85,1.7-4.1,3.01-6.75,3.94
		c-2.65,0.93-5.65,1.39-9,1.39c-7.15,0-12.61-1.76-16.39-5.29c-3.78-3.52-5.66-8.34-5.66-14.44v-16.88c0-6.1,1.89-10.91,5.66-14.44
		c3.77-3.52,9.24-5.29,16.39-5.29c3.35,0,6.35,0.46,9,1.39c2.65,0.93,4.9,2.24,6.75,3.94c1.85,1.7,3.25,3.76,4.2,6.19
		c0.95,2.43,1.42,5.16,1.42,8.21V370.92z M213.56,379.5c0.77,1.68,1.79,3.01,3.04,4.01c1.25,1,2.65,1.71,4.2,2.14
		c1.55,0.43,7.1,0.61,8.65,0.56c1.55,0.05,3.11-0.12,4.69-0.53c1.58-0.4,2.99-1.1,4.24-2.1c1.25-1,2.26-2.35,3.04-4.05
		c0.77-1.7,1.16-3.8,1.16-6.3v-21.52c0-2.5-0.39-4.6-1.16-6.3c-0.78-1.7-1.79-3.05-3.04-4.05c-1.25-1-2.66-1.7-4.24-2.1
		c-1.57-0.4-3.14-0.57-4.69-0.52c-1.55-0.05-7.1,0.14-8.65,0.56c-1.55,0.43-2.95,1.14-4.2,2.14c-1.25,1-2.26,2.34-3.04,4.01
		c-0.78,1.68-1.16,3.76-1.16,6.26v21.52C212.4,375.74,212.78,377.83,213.56,379.5z"/>
	<linearGradient id="SVGID_4_" gradientUnits="userSpaceOnUse" x1="265.9873" y1="362.5918" x2="305.1547" y2="362.5918">
		<stop  offset="0" style="stop-color:#F0CC83"/>
		<stop  offset="0.8047" style="stop-color:#CA9E67;stop-opacity:0.9"/>
	</linearGradient>
	<path class="st4" d="M270.53,338.26c2.97-2.18,7.24-3.44,12.79-3.79c3.85,0,7.39,0.29,10.61,0.88c3.23,0.58,6.61,1.56,10.16,2.94
		c-0.4,1.91-0.75,4.09-1.05,6.54c-1.15-0.75-2.28-1.4-3.38-1.95c-1.1-0.55-2.33-1.06-3.68-1.54c-1.35-0.47-2.9-0.9-4.65-1.27
		c-1.75-0.38-3.88-0.76-6.38-1.16c-1.45,0.1-4.85,0.33-6.2,0.67c-1.35,0.35-2.54,0.88-3.56,1.58c-1.03,0.7-1.84,1.56-2.44,2.59
		c-0.6,1.03-0.88,2.21-0.83,3.56c0,0.85,0.29,1.7,0.86,2.55c0.57,0.85,1.32,1.69,2.25,2.51c0.92,0.83,2.01,1.59,3.26,2.29
		c1.25,0.7,2.55,1.33,3.9,1.88l13.1,4.65c1.8,0.75,3.34,1.7,4.61,2.85c1.28,1.15,2.31,2.39,3.11,3.71c0.8,1.33,1.36,2.7,1.69,4.13
		c0.32,1.43,0.46,2.81,0.41,4.16c-0.1,2.3-0.64,4.35-1.61,6.15c-0.98,1.8-2.28,3.34-3.9,4.61c-1.63,1.27-3.52,2.25-5.7,2.92
		c-2.17,0.67-4.51,1.01-7.01,1.01c-3.45,0-6.84-0.36-10.16-1.09c-3.33-0.72-6.66-1.61-10.01-2.66c0.2-0.9,0.38-1.92,0.53-3.08
		c0.15-1.15,0.32-2.33,0.52-3.52c1.25,1.1,2.56,2,3.94,2.7c1.37,0.7,2.8,1.26,4.27,1.69c1.47,0.43,3.02,0.74,4.65,0.94
		c1.62,0.2,3.34,0.33,5.14,0.38c1.5,0,4.91-0.14,6.24-0.41c1.32-0.28,2.48-0.73,3.45-1.35s1.74-1.49,2.29-2.59
		c0.55-1.1,0.8-2.5,0.75-4.21c0-0.7-0.13-1.55-0.38-2.55c-0.25-1-0.64-1.99-1.16-2.97c-0.52-0.98-1.23-1.9-2.1-2.78
		c-0.88-0.88-1.99-1.56-3.34-2.06l-13.85-4.28c-4-1.45-6.98-3.42-8.92-5.9c-1.95-2.48-2.88-5.14-2.78-8
		C266.04,344.01,267.56,340.44,270.53,338.26z"/>
	<linearGradient id="SVGID_5_" gradientUnits="userSpaceOnUse" x1="324.0196" y1="362.5542" x2="359.2447" y2="362.5542">
		<stop  offset="0" style="stop-color:#F0CC83"/>
		<stop  offset="0.8047" style="stop-color:#CA9E67;stop-opacity:0.9"/>
	</linearGradient>
	<path class="st5" d="M351.61,370.5c-0.58-1.37-1.33-2.49-2.25-3.34c-0.93-0.85-2-1.46-3.23-1.84c-1.23-0.38-2.49-0.61-3.79-0.71
		c-0.2,0-0.7,0-1.5,0c-0.8,0-1.75-0.01-2.85-0.04c-1.1-0.02-2.3-0.02-3.6,0c-1.3,0.03-2.55,0.09-3.75,0.19v25.95h-6.63v-56.33h6.63
		v25.73c0.9,0.05,1.97,0.07,3.23,0.07c1.25,0,2.45,0,3.6,0c1.2,0,2.25,0,3.15,0s1.47,0,1.73,0c1.3-0.1,2.56-0.34,3.79-0.71
		c1.22-0.38,2.3-0.99,3.23-1.84c0.92-0.85,1.66-1.96,2.21-3.34c0.55-1.37,0.83-3.11,0.83-5.21v-14.7h6.63v12.9
		c-0.1,3.65-0.93,6.76-2.48,9.34c-1.55,2.58-3.75,4.51-6.6,5.81c2.25,0.85,4.02,1.99,5.33,3.41c1.3,1.43,2.26,3.26,2.89,5.51
		c0.62,2.25,0.97,4.96,1.05,8.14c0.08,3.18,0.04,6.89-0.11,11.14h-6.63v-14.92C352.47,373.62,352.18,371.88,351.61,370.5z"/>
	<linearGradient id="SVGID_6_" gradientUnits="userSpaceOnUse" x1="378.5689" y1="362.5542" x2="384.2845" y2="362.5542">
		<stop  offset="0" style="stop-color:#F0CC83"/>
		<stop  offset="0.8047" style="stop-color:#CA9E67;stop-opacity:0.9"/>
	</linearGradient>
	<path class="st6" d="M384.28,390.72h-5.72v-56.33h5.72V390.72z"/>
	<linearGradient id="SVGID_7_" gradientUnits="userSpaceOnUse" x1="630.7463" y1="363.0062" x2="636.4619" y2="363.0062">
		<stop  offset="0" style="stop-color:#F0CC83"/>
		<stop  offset="0.8047" style="stop-color:#CA9E67;stop-opacity:0.9"/>
	</linearGradient>
	<path class="st7" d="M636.46,391.17h-5.72v-56.33h5.72V391.17z"/>
	<linearGradient id="SVGID_8_" gradientUnits="userSpaceOnUse" x1="442.3185" y1="362.4565" x2="497.3687" y2="362.4565">
		<stop  offset="0" style="stop-color:#F0CC83"/>
		<stop  offset="0.8047" style="stop-color:#CA9E67;stop-opacity:0.9"/>
	</linearGradient>
	<path class="st8" d="M472.89,379.17h-6.63v-40.2c-1.65,0.3-6.31,0.76-7.99,1.39c-1.68,0.63-3.21,1.44-4.61,2.44
		c-1.4,1-2.54,2.21-3.41,3.64c-0.88,1.42-1.31,3.11-1.31,5.06v39.15h-6.63v-36.83c0-2.6,0.61-4.99,1.84-7.16
		c1.22-2.18,2.87-4.09,4.95-5.74c2.07-1.65,4.49-3.01,7.24-4.09c2.75-1.07,6.63-1.84,9.63-2.29c-0.05-0.2,7.22-0.45,7.22-0.3
		c3.05,0.3,6.96,0.96,9.74,1.99c2.78,1.03,5.24,2.39,7.39,4.09c2.15,1.7,3.86,3.69,5.14,5.96c1.27,2.28,1.91,4.79,1.91,7.54v36.9
		h-6.63v-39.23c0-2.1-0.48-3.9-1.43-5.4s-2.15-2.76-3.6-3.79c-1.45-1.02-3.05-1.82-4.8-2.4c-1.75-0.57-6.42-0.96-8.02-1.16V379.17z"
		/>
	<linearGradient id="SVGID_9_" gradientUnits="userSpaceOnUse" x1="514.9918" y1="362.5916" x2="552.4918" y2="362.5916">
		<stop  offset="0" style="stop-color:#F0CC83"/>
		<stop  offset="0.8047" style="stop-color:#CA9E67;stop-opacity:0.9"/>
	</linearGradient>
	<path class="st9" d="M552.42,390.79h-15.83c-7-0.05-12.35-1.82-16.05-5.32c-3.7-3.5-5.55-8.27-5.55-14.33v-36.75h37.5v4.13h-26.92
		c-1.2,0.15-2.14,0.48-2.81,0.98c-0.67,0.5-1.18,1.21-1.5,2.14c-0.33,0.93-0.51,2.11-0.56,3.56c-0.05,1.45-0.08,3.2-0.08,5.25v8.33
		h23.47v3.45h-23.47v11.32c0,2.5,0.39,4.58,1.16,6.23s1.77,2.99,3,4.01c1.22,1.03,2.61,1.74,4.16,2.14c1.55,0.4,6.1,0.6,7.65,0.6
		h15.83V390.79z"/>
	<linearGradient id="SVGID_10_" gradientUnits="userSpaceOnUse" x1="569.067" y1="362.5214" x2="611.817" y2="362.5214">
		<stop  offset="0" style="stop-color:#F0CC83"/>
		<stop  offset="0.8047" style="stop-color:#CA9E67;stop-opacity:0.9"/>
	</linearGradient>
	<path class="st10" d="M610.02,373.32c-1.2,3.55-2.84,6.61-4.91,9.19c-2.08,2.58-4.49,4.6-7.24,6.08c-2.75,1.48-5.7,2.16-8.85,2.06
		c-0.4,0-0.9,0-1.5,0c-0.55,0-1.5,0-2.85,0c-1.35,0-3.25,0-5.7,0c-2.4,0-5.7,0-9.9,0v-56.25h15.3c4.4,0,8.3,0.64,11.7,1.91
		c3.4,1.27,6.26,3.1,8.59,5.48c2.32,2.38,4.1,5.26,5.32,8.66c1.22,3.4,1.84,7.23,1.84,11.48
		C611.82,365.97,611.22,369.77,610.02,373.32z M574.82,339.68c-0.57,0.13-1.01,0.39-1.31,0.79c-0.55,1.3-0.82,3.35-0.82,6.15v28.65
		c0,2.9,0.06,5.2,0.19,6.9c0.12,1.7,0.59,2.95,1.38,3.75c3.79,0.65,12.02,0.78,14.68,0.38c2.67-0.4,7.87-1.16,9.62-2.29
		s3.12-2.54,4.11-4.24c1-1.7,1.75-3.51,2.24-5.44c0.5-1.92,0.8-3.87,0.9-5.85c0.1-1.97,0.15-3.84,0.15-5.59
		c0-7.6-1.37-14.75-4.89-18.75c-3.51-4-17.1-4.65-23.97-4.65C576.16,339.49,575.4,339.55,574.82,339.68z"/>
	<linearGradient id="SVGID_11_" gradientUnits="userSpaceOnUse" x1="655.3912" y1="362.5166" x2="699.0416" y2="362.5166">
		<stop  offset="0" style="stop-color:#F0CC83"/>
		<stop  offset="0.8047" style="stop-color:#CA9E67;stop-opacity:0.9"/>
	</linearGradient>
	<path class="st11" d="M662.24,390.64h-6.85c0.05-0.4,0.09-1.41,0.11-3.04c0.02-1.62,0.04-3.91,0.04-6.86c0-3,0-6.7,0-11.1
		c0-4.4,0-9.57,0-15.52c0-6.1,1.89-10.91,5.66-14.44c3.77-3.52,9.24-5.29,16.39-5.29c3.35,0,6.35,0.46,9,1.39
		c2.65,0.93,4.9,2.24,6.75,3.94c1.85,1.7,3.25,3.76,4.2,6.19c0.95,2.43,1.42,5.16,1.42,8.21l0.08,36.52h-6.78
		c0.05-0.4,0.08-1.35,0.08-2.85c0-1.55,0-3.45,0-5.7s0-4.77,0-7.58c0-2.85,0-5.8,0-8.85h-30.17L662.24,390.64z M662.17,362.22h30.17
		v-10.43c0-2.5-0.39-4.6-1.16-6.3c-0.78-1.7-1.79-3.05-3.04-4.05c-1.25-1-2.66-1.7-4.24-2.1c-1.58-0.4-3.14-0.57-4.69-0.53
		c-1.55-0.05-7.1,0.14-8.65,0.56c-1.55,0.43-2.95,1.14-4.2,2.14c-1.25,1-2.26,2.34-3.04,4.01c-0.78,1.68-1.16,3.76-1.16,6.26V362.22
		z"/>
	<g>
		<linearGradient id="SVGID_12_" gradientUnits="userSpaceOnUse" x1="230.2522" y1="421.7534" x2="246.8866" y2="421.7534">
			<stop  offset="0" style="stop-color:#F0CC83"/>
			<stop  offset="0.8047" style="stop-color:#CA9E67;stop-opacity:0.9"/>
		</linearGradient>
		<path class="st12" d="M238.82,431.19h-0.54l-8.04-18.88h0.87l7.45,17.6l7.48-17.6h0.84L238.82,431.19z"/>
		<linearGradient id="SVGID_13_" gradientUnits="userSpaceOnUse" x1="255.8928" y1="421.7534" x2="266.2511" y2="421.7534">
			<stop  offset="0" style="stop-color:#F0CC83"/>
			<stop  offset="0.8047" style="stop-color:#CA9E67;stop-opacity:0.9"/>
		</linearGradient>
		<path class="st13" d="M255.89,431.19v-18.88h10.36V413h-9.59v8.34h4.92v0.69h-4.92v8.47h9.59v0.69H255.89z"/>
		<linearGradient id="SVGID_14_" gradientUnits="userSpaceOnUse" x1="274.8742" y1="421.7534" x2="286.9424" y2="421.7534">
			<stop  offset="0" style="stop-color:#F0CC83"/>
			<stop  offset="0.8047" style="stop-color:#CA9E67;stop-opacity:0.9"/>
		</linearGradient>
		<path class="st14" d="M286.64,420.16c-0.2,0.67-0.53,1.29-0.97,1.86c-0.44,0.57-1.02,1.05-1.72,1.44
			c-0.71,0.39-1.56,0.59-2.56,0.59l-3.83,0.02l8.16,7.12h-0.97l-9.11-7.81h4.75c0.44,0,0.85-0.01,1.22-0.04
			c0.37-0.02,0.73-0.08,1.06-0.17c0.33-0.08,0.65-0.21,0.97-0.37c0.31-0.16,0.63-0.37,0.93-0.62c0.6-0.63,1.01-1.27,1.25-1.93
			c0.24-0.65,0.36-1.36,0.36-2.1c0-0.82-0.19-1.63-0.57-2.45c-0.38-0.82-0.94-1.46-1.67-1.94c-0.29-0.19-0.6-0.33-0.92-0.43
			c-0.32-0.1-0.68-0.18-1.06-0.23c-0.38-0.05-0.8-0.08-1.25-0.09c-0.45-0.01-0.96-0.01-1.52-0.01h-3.55v18.19h-0.77v-18.88h4.31
			c0.73,0,1.36,0.02,1.89,0.05c0.53,0.03,0.98,0.08,1.36,0.15c0.38,0.07,0.71,0.15,1,0.25c0.28,0.1,0.54,0.21,0.78,0.33
			c0.37,0.2,0.73,0.48,1.06,0.82c0.33,0.34,0.62,0.73,0.85,1.17c0.24,0.44,0.43,0.92,0.57,1.44c0.14,0.52,0.23,1.05,0.24,1.59v0.13
			C286.94,418.85,286.84,419.49,286.64,420.16z"/>
		<linearGradient id="SVGID_15_" gradientUnits="userSpaceOnUse" x1="295.3867" y1="421.7534" x2="306.4084" y2="421.7534">
			<stop  offset="0" style="stop-color:#F0CC83"/>
			<stop  offset="0.8047" style="stop-color:#CA9E67;stop-opacity:0.9"/>
		</linearGradient>
		<path class="st15" d="M301.28,413v18.19h-0.77V413h-5.13v-0.69h11.02V413H301.28z"/>
		<linearGradient id="SVGID_16_" gradientUnits="userSpaceOnUse" x1="315.1074" y1="421.7534" x2="327.1756" y2="421.7534">
			<stop  offset="0" style="stop-color:#F0CC83"/>
			<stop  offset="0.8047" style="stop-color:#CA9E67;stop-opacity:0.9"/>
		</linearGradient>
		<path class="st16" d="M326.87,420.16c-0.2,0.67-0.53,1.29-0.97,1.86c-0.44,0.57-1.02,1.05-1.72,1.44
			c-0.71,0.39-1.56,0.59-2.56,0.59l-3.83,0.02l8.16,7.12h-0.97l-9.11-7.81h4.75c0.44,0,0.85-0.01,1.22-0.04
			c0.37-0.02,0.73-0.08,1.06-0.17c0.33-0.08,0.65-0.21,0.97-0.37c0.31-0.16,0.63-0.37,0.93-0.62c0.6-0.63,1.01-1.27,1.25-1.93
			c0.24-0.65,0.36-1.36,0.36-2.1c0-0.82-0.19-1.63-0.57-2.45c-0.38-0.82-0.94-1.46-1.67-1.94c-0.29-0.19-0.6-0.33-0.92-0.43
			c-0.32-0.1-0.68-0.18-1.06-0.23c-0.38-0.05-0.8-0.08-1.25-0.09c-0.45-0.01-0.96-0.01-1.52-0.01h-3.55v18.19h-0.77v-18.88h4.31
			c0.73,0,1.36,0.02,1.89,0.05c0.53,0.03,0.98,0.08,1.36,0.15c0.38,0.07,0.71,0.15,1,0.25c0.28,0.1,0.54,0.21,0.78,0.33
			c0.37,0.2,0.73,0.48,1.06,0.82c0.33,0.34,0.62,0.73,0.85,1.17c0.24,0.44,0.43,0.92,0.57,1.44c0.14,0.52,0.23,1.05,0.24,1.59v0.13
			C327.18,418.85,327.07,419.49,326.87,420.16z"/>
		<linearGradient id="SVGID_17_" gradientUnits="userSpaceOnUse" x1="336.3848" y1="421.7534" x2="337.1503" y2="421.7534">
			<stop  offset="0" style="stop-color:#F0CC83"/>
			<stop  offset="0.8047" style="stop-color:#CA9E67;stop-opacity:0.9"/>
		</linearGradient>
		<path class="st17" d="M336.38,431.19v-18.88h0.77v18.88H336.38z"/>
		<linearGradient id="SVGID_18_" gradientUnits="userSpaceOnUse" x1="347.0745" y1="421.7534" x2="357.4329" y2="421.7534">
			<stop  offset="0" style="stop-color:#F0CC83"/>
			<stop  offset="0.8047" style="stop-color:#CA9E67;stop-opacity:0.9"/>
		</linearGradient>
		<path class="st18" d="M347.07,431.19v-18.88h10.36V413h-9.59v8.34h4.92v0.69h-4.92v8.47h9.59v0.69H347.07z"/>
		<linearGradient id="SVGID_19_" gradientUnits="userSpaceOnUse" x1="366.1326" y1="421.7534" x2="376.8485" y2="421.7534">
			<stop  offset="0" style="stop-color:#F0CC83"/>
			<stop  offset="0.8047" style="stop-color:#CA9E67;stop-opacity:0.9"/>
		</linearGradient>
		<path class="st19" d="M376.85,427.01c0,0.82-0.15,1.5-0.46,2.04c-0.31,0.54-0.73,0.97-1.28,1.29c-0.54,0.32-1.18,0.54-1.91,0.66
			c-0.73,0.13-1.51,0.19-2.35,0.19h-4.72v-18.88h4.01c0.82,0,1.48,0.06,1.98,0.19c0.5,0.13,0.95,0.29,1.34,0.5
			c0.42,0.24,0.78,0.52,1.07,0.84c0.29,0.32,0.52,0.66,0.69,1.02c0.17,0.36,0.29,0.72,0.36,1.1c0.07,0.37,0.1,0.74,0.1,1.1
			c0,0.14,0,0.46,0.01,0.96c0.01,0.5-0.06,1.06-0.19,1.68c-0.14,0.62-0.39,1.23-0.77,1.84c-0.37,0.6-0.94,1.07-1.71,1.39v0.05
			c0.61,0.03,1.13,0.15,1.57,0.36c0.43,0.2,0.79,0.45,1.07,0.74c0.28,0.29,0.5,0.6,0.66,0.94c0.16,0.34,0.28,0.66,0.36,0.94
			c0.08,0.29,0.12,0.53,0.14,0.73C376.84,426.89,376.85,426.99,376.85,427.01z M374.91,416.96c0-0.87-0.2-1.59-0.59-2.18
			c-0.39-0.59-0.83-0.99-1.33-1.21c-0.27-0.15-0.61-0.28-1.02-0.39c-0.41-0.11-1.02-0.17-1.84-0.17h-3.24l-0.05,9.72h3.42
			c0.56,0,1.06-0.04,1.51-0.13c0.44-0.08,0.83-0.2,1.17-0.36c0.49-0.22,0.87-0.56,1.13-1.01c0.26-0.45,0.46-0.94,0.59-1.47
			c0.13-0.53,0.2-1.04,0.22-1.54C374.9,417.72,374.91,417.3,374.91,416.96z M376.08,427.03c0-0.48-0.09-0.94-0.27-1.38
			c-0.18-0.44-0.44-0.83-0.79-1.16c-0.35-0.33-0.77-0.6-1.28-0.8c-0.5-0.2-1.08-0.3-1.75-0.28h-1.73h-3.42l0.05,7.09h3.98
			c0.68,0,1.33-0.06,1.96-0.18c0.63-0.12,1.22-0.3,1.76-0.55c0.54-0.25,0.93-0.6,1.15-1.07
			C375.97,428.24,376.08,427.68,376.08,427.03z"/>
		<linearGradient id="SVGID_20_" gradientUnits="userSpaceOnUse" x1="385.7774" y1="421.7659" x2="396.7225" y2="421.7659">
			<stop  offset="0" style="stop-color:#F0CC83"/>
			<stop  offset="0.8047" style="stop-color:#CA9E67;stop-opacity:0.9"/>
		</linearGradient>
		<path class="st20" d="M396.72,426.24c0,0.78-0.15,1.5-0.46,2.14c-0.31,0.65-0.71,1.2-1.22,1.67c-0.51,0.47-1.1,0.83-1.76,1.08
			s-1.34,0.38-2.04,0.38c-0.56,0-1.15-0.07-1.77-0.22c-0.62-0.14-1.19-0.39-1.71-0.74c-0.52-0.35-0.96-0.82-1.33-1.4
			c-0.37-0.59-0.58-1.33-0.65-2.23h0.77c0.12,0.9,0.36,1.61,0.73,2.13c0.37,0.52,0.78,0.91,1.24,1.17c0.46,0.26,0.93,0.43,1.43,0.5
			c0.49,0.07,0.92,0.1,1.28,0.1c0.59,0,1.18-0.11,1.75-0.32c0.57-0.21,1.08-0.51,1.52-0.91c0.44-0.39,0.8-0.86,1.07-1.42
			c0.27-0.55,0.41-1.17,0.41-1.85c0-0.87-0.17-1.58-0.5-2.13c-0.33-0.55-0.74-1-1.24-1.34c-0.49-0.34-1.02-0.6-1.57-0.77
			c-0.55-0.17-1.06-0.31-1.52-0.43c-0.41-0.1-0.9-0.24-1.47-0.42c-0.57-0.18-1.11-0.44-1.62-0.78c-0.51-0.34-0.94-0.79-1.3-1.36
			c-0.36-0.57-0.55-1.3-0.56-2.18v-0.08c0-0.76,0.14-1.45,0.42-2.05c0.28-0.6,0.65-1.11,1.12-1.53c0.47-0.42,1.01-0.73,1.63-0.94
			c0.62-0.21,1.27-0.32,1.95-0.32c0.56,0,1.13,0.11,1.7,0.32c0.57,0.21,1.09,0.56,1.57,1.05c0.48,0.48,0.86,1.12,1.16,1.91
			c0.3,0.79,0.45,1.76,0.45,2.92h-0.77c0-0.73-0.07-1.43-0.22-2.09c-0.15-0.66-0.38-1.25-0.71-1.76c-0.33-0.51-0.76-0.91-1.29-1.21
			c-0.53-0.3-1.17-0.45-1.94-0.45c-0.6,0-1.16,0.1-1.68,0.29c-0.53,0.2-0.99,0.47-1.38,0.83c-0.39,0.36-0.7,0.79-0.92,1.3
			c-0.22,0.51-0.33,1.07-0.33,1.68c0,0.75,0.14,1.37,0.42,1.85c0.28,0.48,0.66,0.89,1.14,1.21c0.48,0.32,1.02,0.58,1.63,0.78
			c0.61,0.2,1.24,0.38,1.89,0.55c0.15,0.03,0.37,0.09,0.66,0.17s0.61,0.19,0.96,0.33s0.71,0.34,1.07,0.57
			c0.37,0.24,0.7,0.54,0.99,0.89c0.3,0.36,0.54,0.79,0.73,1.3C396.63,424.97,396.72,425.56,396.72,426.24z"/>
		<linearGradient id="SVGID_21_" gradientUnits="userSpaceOnUse" x1="406.0089" y1="421.7534" x2="425.858" y2="421.7534">
			<stop  offset="0" style="stop-color:#F0CC83"/>
			<stop  offset="0.8047" style="stop-color:#CA9E67;stop-opacity:0.9"/>
		</linearGradient>
		<path class="st21" d="M425.09,431.19v-18.11h-0.05l-8.88,18.11h-0.43l-8.9-18.11h-0.05v18.11h-0.77v-18.88h1.23l8.73,17.65
			l8.7-17.65h1.2v18.88H425.09z"/>
		<linearGradient id="SVGID_22_" gradientUnits="userSpaceOnUse" x1="434.8635" y1="421.7534" x2="452.0342" y2="421.7534">
			<stop  offset="0" style="stop-color:#F0CC83"/>
			<stop  offset="0.8047" style="stop-color:#CA9E67;stop-opacity:0.9"/>
		</linearGradient>
		<path class="st22" d="M451.22,431.19l-1.15-2.68l-13.22-0.08l-1.17,2.76h-0.82l8.09-18.88h0.99l8.09,18.88H451.22z M443.44,413.03
			l-6.25,14.72l12.55,0.08L443.44,413.03z"/>
		<linearGradient id="SVGID_23_" gradientUnits="userSpaceOnUse" x1="461.0136" y1="421.7534" x2="473.0811" y2="421.7534">
			<stop  offset="0" style="stop-color:#F0CC83"/>
			<stop  offset="0.8047" style="stop-color:#CA9E67;stop-opacity:0.9"/>
		</linearGradient>
		<path class="st23" d="M472.78,420.16c-0.2,0.67-0.53,1.29-0.97,1.86c-0.44,0.57-1.02,1.05-1.72,1.44
			c-0.71,0.39-1.56,0.59-2.56,0.59l-3.83,0.02l8.16,7.12h-0.97l-9.11-7.81h4.75c0.44,0,0.85-0.01,1.22-0.04
			c0.37-0.02,0.73-0.08,1.06-0.17c0.33-0.08,0.65-0.21,0.97-0.37c0.32-0.16,0.63-0.37,0.93-0.62c0.59-0.63,1.01-1.27,1.25-1.93
			c0.24-0.65,0.36-1.36,0.36-2.1c0-0.82-0.19-1.63-0.57-2.45c-0.38-0.82-0.94-1.46-1.67-1.94c-0.29-0.19-0.6-0.33-0.92-0.43
			c-0.32-0.1-0.68-0.18-1.06-0.23c-0.38-0.05-0.8-0.08-1.25-0.09c-0.45-0.01-0.96-0.01-1.52-0.01h-3.55v18.19h-0.77v-18.88h4.31
			c0.73,0,1.36,0.02,1.89,0.05s0.98,0.08,1.37,0.15c0.38,0.07,0.71,0.15,0.99,0.25c0.28,0.1,0.54,0.21,0.78,0.33
			c0.37,0.2,0.73,0.48,1.06,0.82c0.33,0.34,0.62,0.73,0.85,1.17c0.24,0.44,0.43,0.92,0.57,1.44c0.14,0.52,0.23,1.05,0.24,1.59v0.13
			C473.08,418.85,472.98,419.49,472.78,420.16z"/>
		<linearGradient id="SVGID_24_" gradientUnits="userSpaceOnUse" x1="482.2921" y1="421.7534" x2="492.2158" y2="421.7534">
			<stop  offset="0" style="stop-color:#F0CC83"/>
			<stop  offset="0.8047" style="stop-color:#CA9E67;stop-opacity:0.9"/>
		</linearGradient>
		<path class="st24" d="M482.29,431.19v-18.88h0.76v18.88H482.29z M491.25,431.19l-8.06-9.69l8.11-9.18h0.92l-8.09,9.16l8.09,9.72
			H491.25z"/>
		<linearGradient id="SVGID_25_" gradientUnits="userSpaceOnUse" x1="501.5016" y1="421.7534" x2="511.86" y2="421.7534">
			<stop  offset="0" style="stop-color:#F0CC83"/>
			<stop  offset="0.8047" style="stop-color:#CA9E67;stop-opacity:0.9"/>
		</linearGradient>
		<path class="st25" d="M501.5,431.19v-18.88h10.36V413h-9.59v8.34h4.92v0.69h-4.92v8.47h9.59v0.69H501.5z"/>
		<linearGradient id="SVGID_26_" gradientUnits="userSpaceOnUse" x1="519.5898" y1="421.7534" x2="530.6122" y2="421.7534">
			<stop  offset="0" style="stop-color:#F0CC83"/>
			<stop  offset="0.8047" style="stop-color:#CA9E67;stop-opacity:0.9"/>
		</linearGradient>
		<path class="st26" d="M525.48,413v18.19h-0.76V413h-5.13v-0.69h11.02V413H525.48z"/>
		<linearGradient id="SVGID_27_" gradientUnits="userSpaceOnUse" x1="539.3373" y1="421.7534" x2="540.1022" y2="421.7534">
			<stop  offset="0" style="stop-color:#F0CC83"/>
			<stop  offset="0.8047" style="stop-color:#CA9E67;stop-opacity:0.9"/>
		</linearGradient>
		<path class="st27" d="M539.34,431.19v-18.88h0.76v18.88H539.34z"/>
		<linearGradient id="SVGID_28_" gradientUnits="userSpaceOnUse" x1="550.0022" y1="421.7534" x2="564.9013" y2="421.7534">
			<stop  offset="0" style="stop-color:#F0CC83"/>
			<stop  offset="0.8047" style="stop-color:#CA9E67;stop-opacity:0.9"/>
		</linearGradient>
		<path class="st28" d="M563.93,431.19l-13.11-18.11h-0.05v18.11H550v-18.88h1.15l12.94,17.86h0.05v-17.86h0.76v18.88H563.93z"/>
		<linearGradient id="SVGID_29_" gradientUnits="userSpaceOnUse" x1="574.2631" y1="421.7534" x2="594.1128" y2="421.7534">
			<stop  offset="0" style="stop-color:#F0CC83"/>
			<stop  offset="0.8047" style="stop-color:#CA9E67;stop-opacity:0.9"/>
		</linearGradient>
		<path class="st29" d="M593.05,426.43c-0.57,1.01-1.3,1.89-2.19,2.64c-0.89,0.75-1.92,1.34-3.07,1.79
			c-1.16,0.44-2.4,0.66-3.72,0.66c-1.36,0-2.63-0.24-3.81-0.73c-1.18-0.49-2.22-1.16-3.11-2.03c-0.89-0.87-1.59-1.9-2.1-3.1
			c-0.51-1.2-0.77-2.5-0.77-3.92c0-1.41,0.26-2.72,0.77-3.92c0.51-1.2,1.21-2.23,2.1-3.1c0.89-0.87,1.93-1.54,3.11-2.03
			c1.18-0.48,2.45-0.73,3.81-0.73c0.87,0,1.72,0.1,2.56,0.31c0.84,0.2,1.64,0.5,2.39,0.89c0.75,0.39,1.43,0.87,2.05,1.43
			c0.62,0.56,1.14,1.19,1.57,1.89h-0.92c-0.95-1.24-2.08-2.19-3.38-2.85c-1.3-0.65-2.73-0.98-4.27-0.98c-1.26,0-2.44,0.23-3.53,0.69
			c-1.1,0.46-2.05,1.09-2.87,1.9c-0.82,0.81-1.46,1.77-1.93,2.87c-0.47,1.11-0.7,2.31-0.7,3.62c0,1.31,0.23,2.52,0.7,3.62
			c0.47,1.1,1.11,2.06,1.93,2.87c0.82,0.81,1.77,1.44,2.87,1.9c1.1,0.46,2.27,0.69,3.53,0.69c1.19,0,2.3-0.2,3.34-0.59
			c1.04-0.39,1.96-0.91,2.75-1.56c0.8-0.65,1.46-1.39,1.99-2.22c0.53-0.83,0.88-1.69,1.05-2.58h-15.61v-0.69h16.53
			C593.98,424.35,593.62,425.42,593.05,426.43z"/>
	</g>
</g>
</svg>
